PathFileType	4	(X/Y/Z)	/Users/itak/Documents/Research/Walk-IL/dataset/trc/00296_00010.trc
DataRate	CameraRate	NumFrames	NumMarkers	Units	OrigDataRate	OrigDataStartFrame	OrigNumFrames
100.000000	100.000000	4	53	mm	100.000000	250	669
Frame#	Time	RPSI			LPSI			L3			STRN			T10			C7			CLAV			RBAK			LBAK			LSHO			LUPA			LAEL			LAOL			LWTS			LWPS			LFRA			LIFD			LHPS			LHTS			RSHO			RUPA			RAEL			RAOL			RWTS			RWPS			RFRA			RIFD			RHTS			RHPS			RBHD			LFHD			RFHD			LBHD			RHIP			RASI			LASI			LKNE			LTHI			LANK			LTIP			LTOE			LMT1			LMT5			LHEE			RKNE			RTHI			RANK			RTIP			RTOE			RMT1			RMT5			RHEE			LHIP			
		X1	Y1	Z1	X2	Y2	Z2	X3	Y3	Z3	X4	Y4	Z4	X5	Y5	Z5	X6	Y6	Z6	X7	Y7	Z7	X8	Y8	Z8	X9	Y9	Z9	X10	Y10	Z10	X11	Y11	Z11	X12	Y12	Z12	X13	Y13	Z13	X14	Y14	Z14	X15	Y15	Z15	X16	Y16	Z16	X17	Y17	Z17	X18	Y18	Z18	X19	Y19	Z19	X20	Y20	Z20	X21	Y21	Z21	X22	Y22	Z22	X23	Y23	Z23	X24	Y24	Z24	X25	Y25	Z25	X26	Y26	Z26	X27	Y27	Z27	X28	Y28	Z28	X29	Y29	Z29	X30	Y30	Z30	X31	Y31	Z31	X32	Y32	Z32	X33	Y33	Z33	X34	Y34	Z34	X35	Y35	Z35	X36	Y36	Z36	X37	Y37	Z37	X38	Y38	Z38	X39	Y39	Z39	X40	Y40	Z40	X41	Y41	Z41	X42	Y42	Z42	X43	Y43	Z43	X44	Y44	Z44	X45	Y45	Z45	X46	Y46	Z46	X47	Y47	Z47	X48	Y48	Z48	X49	Y49	Z49	X50	Y50	Z50	X51	Y51	Z51	X52	Y52	Z52	X53	Y53	Z53	

251	2.5	-615.7609252929688	947.9684448242188	287.3221740722656	-789.9146728515625	959.5693969726562	274.8485412597656	-714.9918212890625	1022.828796386719	265.1736450195312	-674.9476318359375	1202.75537109375	20.0474681854248	-725.27978515625	1143.644775390625	280.7015075683594	-727.3621826171875	1389.726928710938	230.4210052490234	-686.7495727539062	1303.8251953125	80.21498107910156	-672.636474609375	1251.6787109375	303.1564331054688	-831.994384765625	1355.741333007812	224.2834014892578	-860.9197387695312	1362.552978515625	125.8739013671875	-946.3697509765625	1251.636474609375	139.0939636230469	-986.2855834960938	1067.5439453125	111.9751205444336	-937.6719360351562	1020.458862304688	170.0797729492188	-976.2230224609375	972.985107421875	-83.19740295410156	-1036.408081054688	937.2500610351562	-62.25210571289062	-1012.744873046875	1002.183227539062	50.09352111816406	-1000.151428222656	863.5594482421875	-229.327392578125	-1043.993408203125	886.4194946289062	-133.6224212646484	-1012.755432128906	931.325439453125	-170.9627380371094	-559.8661499023438	1365.357543945312	210.0813598632812	-504.2278137207031	1316.155029296875	247.2802886962891	-495.2244262695312	1080.991577148438	366.5101013183594	-584.2844848632812	1066.609008789062	338.2621459960938	-490.8774719238281	834.2357177734375	360.102783203125	-456.3023071289062	861.2962036132812	433.43701171875	-473.8801879882812	1015.730529785156	383.5182800292969	-488.1418762207031	665.8667602539062	429.9096374511719	-456.3535766601562	724.1591796875	393.1152038574219	-442.7976684570312	750.2510986328125	457.515380859375	-646.812255859375	1554.278076171875	197.2340087890625	-678.5564575195312	1546.238891601562	-13.60564804077148	-595.3900146484375	1539.649047851562	28.89321899414062	-778.2344970703125	1554.80419921875	131.6970062255859	-514.5077514648438	892.4846801757812	186.5541229248047	-583.8616943359375	904.54345703125	68.01004791259766	-836.350341796875	914.74267578125	66.55502319335938	-903.9775390625	454.0917663574219	213.9409637451172	-907.9483032226562	596.5610961914062	193.4790191650391	-888.9795532226562	136.2052612304688	554.174560546875	-908.5458374023438	292.3827514648438	385.9078063964844	-811.338134765625	36.67051696777344	403.7718505859375	-773.5184936523438	60.89383316040039	461.4791564941406	-886.3078002929688	50.27422714233398	467.8993225097656	-834.9678955078125	176.3800964355469	587.5733642578125	-615.9714965820312	466.7011108398438	-13.99023628234863	-536.3801879882812	704.89501953125	74.08721923828125	-730.8958129882812	43.13160705566406	-40.13142395019531	-649.7643432617188	350.2327270507812	-56.7180290222168	-737.8064575195312	61.60401916503906	-238.968994140625	-791.5255126953125	51.35476303100586	-194.4556121826172	-688.3300170898438	36.35784530639648	-138.8550415039062	-790.7002563476562	38.27580261230469	-3.330326795578003	-887.1237182617188	917.6980590820312	204.3885650634766	
252	2.51	-616.1998291015625	949.247802734375	277.8787536621094	-790.1736450195312	960.255615234375	262.7153625488281	-715.1580810546875	1024.463134765625	254.5874786376953	-671.4229736328125	1204.830444335938	9.990924835205078	-725.3397216796875	1145.140380859375	270.2602233886719	-726.5222778320312	1391.176391601562	220.1157531738281	-683.9160766601562	1305.61767578125	70.61412048339844	-672.8029174804688	1252.913940429688	293.2966918945312	-831.0653076171875	1357.460571289062	212.4871826171875	-858.5814208984375	1364.541625976562	113.7613220214844	-944.2557983398438	1253.782104492188	126.3398361206055	-983.23388671875	1068.912231445312	101.2029495239258	-935.034912109375	1023.199279785156	160.5543975830078	-969.940673828125	969.4235229492188	-92.03308868408203	-1030.29345703125	934.0914916992188	-71.00629425048828	-1008.6064453125	1001.971252441406	40.16704940795898	-991.3844604492188	855.8248901367188	-235.3401947021484	-1036.720703125	881.2992553710938	-141.0699005126953	-1005.005126953125	925.1890258789062	-179.1697845458984	-558.7125854492188	1366.577880859375	202.0269622802734	-503.6123962402344	1316.960083007812	239.6485290527344	-496.1538391113281	1080.244140625	356.2172241210938	-585.0798950195312	1066.437133789062	326.9994506835938	-490.8791198730469	833.706298828125	344.1487426757812	-457.9824523925781	858.866455078125	418.9127502441406	-475.2215881347656	1014.462219238281	372.4716796875	-487.9795227050781	663.4711303710938	408.9251708984375	-455.8162231445312	723.0831298828125	374.58740234375	-444.0276794433594	747.3397216796875	440.0472106933594	-644.9663696289062	1555.501586914062	187.9062652587891	-674.1544189453125	1547.4228515625	-23.2806224822998	-591.5464477539062	1540.708618164062	20.16130638122559	-775.6264038085938	1556.188598632812	120.7359390258789	-513.0232543945312	894.257080078125	179.0290069580078	-580.0939331054688	906.7549438476562	59.10605239868164	-832.458984375	916.1737060546875	53.77121353149414	-905.6259765625	454.1011352539062	193.2685089111328	-908.133544921875	596.744140625	175.0436401367188	-896.3302612304688	145.4284515380859	540.2401733398438	-913.0281372070312	296.4868469238281	368.0510559082031	-811.654052734375	35.94538116455078	402.6634216308594	-776.4424438476562	65.62769317626953	458.1505126953125	-889.2368774414062	52.25310516357422	461.6585388183594	-843.6028442382812	188.3808441162109	572.1083374023438	-614.3165283203125	467.259033203125	-21.43380737304688	-534.072998046875	705.9534912109375	66.07598114013672	-730.88720703125	43.58737564086914	-40.67084503173828	-648.89453125	350.1929321289062	-62.95012283325195	-738.5928344726562	59.59303283691406	-240.4073486328125	-792.0579223632812	50.36027145385742	-195.0929412841797	-688.894775390625	36.53221130371094	-139.4305267333984	-790.5283203125	38.70320892333984	-3.602640390396118	-886.0350341796875	918.2987060546875	190.5707550048828	
253	2.52	-616.3728637695312	950.4415283203125	268.5968017578125	-790.1810302734375	960.9533081054688	251.0536041259766	-715.1629028320312	1026.0439453125	244.4322662353516	-667.8508911132812	1206.85888671875	0.2056260257959366	-725.2756958007812	1146.649780273438	259.94287109375	-725.6239013671875	1392.634399414062	209.9640350341797	-681.0621948242188	1307.438598632812	61.1789665222168	-672.8670043945312	1254.1767578125	283.5777587890625	-830.0834350585938	1359.210815429688	200.8721160888672	-856.1823120117188	1366.548583984375	101.7999649047852	-942.0911254882812	1255.976928710938	113.5718460083008	-980.2402954101562	1070.3232421875	90.35673522949219	-932.593017578125	1026.035888671875	150.9976654052734	-963.5592041015625	965.366943359375	-100.5308380126953	-1024.161376953125	930.5904541015625	-79.42746734619141	-1004.50830078125	1001.658142089844	30.29877853393555	-982.50927734375	847.15478515625	-240.4514007568359	-1029.453979492188	875.6324462890625	-147.9225158691406	-997.0880126953125	918.2857666015625	-186.8384857177734	-557.5575561523438	1367.86376953125	194.0878295898438	-502.9676818847656	1317.85205078125	232.0926971435547	-496.7923278808594	1079.582153320312	345.9344177246094	-585.6458129882812	1066.406372070312	315.8999328613281	-490.6372375488281	833.4164428710938	327.6841735839844	-459.2654418945312	856.4336547851562	403.8120422363281	-476.2645568847656	1013.224792480469	361.2865905761719	-487.4850769042969	661.3130493164062	386.8598327636719	-455.0093078613281	722.2711181640625	355.1822814941406	-444.8852844238281	744.4478759765625	421.6671142578125	-643.121826171875	1556.79150390625	178.7108306884766	-669.6907348632812	1548.619750976562	-32.80622863769531	-587.684814453125	1541.786499023438	11.60128593444824	-772.9855346679688	1557.63134765625	109.8709487915039	-511.4792175292969	895.8220825195312	171.7018890380859	-576.32666015625	908.75634765625	50.4677848815918	-828.5784912109375	917.7347412109375	41.44197845458984	-906.7998046875	454.1978759765625	171.8283843994141	-907.9788208007812	597.027099609375	156.4052276611328	-904.2203369140625	154.4573516845703	524.4764404296875	-917.4632568359375	300.3255004882812	348.7681274414062	-811.8949584960938	35.13781356811523	400.9031066894531	-779.9755859375	70.96128845214844	453.9380187988281	-892.5177612304688	54.73548126220703	454.153076171875	-852.9774169921875	200.0531311035156	554.9823608398438	-612.7704467773438	467.4593200683594	-27.7878246307373	-531.7874755859375	706.609130859375	58.71038055419922	-730.9129028320312	43.94133758544922	-41.08020782470703	-647.9336547851562	349.9110107421875	-68.207763671875	-739.2969970703125	57.85890579223633	-241.628173828125	-792.468017578125	49.56591796875	-195.5881195068359	-689.3658447265625	36.76044464111328	-139.8333892822266	-790.4336547851562	38.98833847045898	-3.787930488586426	-884.7820434570312	919.0213012695312	177.2374114990234	
254	2.53	-616.2732543945312	951.6107788085938	259.5018005371094	-789.9413452148438	961.6581420898438	239.8672637939453	-714.9508666992188	1027.546142578125	234.6280670166016	-664.2573852539062	1208.779541015625	-9.287728309631348	-725.0596923828125	1148.150268554688	249.7848510742188	-724.6529541015625	1394.078735351562	199.9834594726562	-678.2098388671875	1309.240112304688	51.89614868164062	-672.823486328125	1255.437133789062	274.0312805175781	-829.0388793945312	1360.954223632812	189.4805908203125	-853.7529296875	1368.531005859375	90.03958129882812	-939.872314453125	1258.149658203125	100.8854522705078	-977.3172607421875	1071.717895507812	79.40005493164062	-930.3621826171875	1028.878784179688	141.373046875	-957.090087890625	960.8209228515625	-108.6630783081055	-1018.05224609375	926.7705078125	-87.54311370849609	-1000.464233398438	1001.20849609375	20.44948768615723	-973.490966796875	837.6796264648438	-244.6400604248047	-1022.212585449219	869.4796142578125	-154.2090454101562	-988.99560546875	910.6827392578125	-193.9360504150391	-556.4063720703125	1369.171630859375	186.261474609375	-502.2713623046875	1318.770385742188	224.6063690185547	-497.0950317382812	1078.94287109375	335.671630859375	-585.928466796875	1066.475708007812	305.0116271972656	-490.1830749511719	833.365478515625	310.7933044433594	-460.1148681640625	854.0048217773438	388.1777038574219	-476.9560852050781	1011.97802734375	349.9579772949219	-486.6700744628906	659.4435424804688	363.8412475585938	-453.9771423339844	721.7478637695312	334.9848022460938	-445.3472595214844	741.6063232421875	402.4306640625	-641.2821655273438	1558.150024414062	169.6566772460938	-665.1812744140625	1549.823852539062	-42.16756439208984	-583.8169555664062	1542.877075195312	3.230123519897461	-770.314453125	1559.131591796875	99.12336730957031	-509.8743591308594	897.2526245117188	164.5214996337891	-572.6231079101562	910.508056640625	42.071044921875	-824.7993774414062	919.3367309570312	29.59082794189453	-907.3837890625	454.4140319824219	149.6773681640625	-907.4176025390625	597.420654296875	137.5893707275391	-912.4265747070312	163.0820770263672	506.9468688964844	-921.6890258789062	303.8443908691406	328.122802734375	-812.1350708007812	34.38089370727539	398.1339111328125	-784.1321411132812	76.84443664550781	448.4724426269531	-896.1044921875	57.72061538696289	445.1646423339844	-862.8590087890625	211.1911163330078	536.30322265625	-611.3222045898438	467.35205078125	-33.0705451965332	-529.5482788085938	706.9052734375	51.99895858764648	-730.9736328125	44.20656204223633	-41.38391876220703	-646.8931884765625	349.4313659667969	-72.53252410888672	-739.9532470703125	56.32002639770508	-242.6582183837891	-792.7811889648438	48.87618255615234	-195.9771575927734	-689.7525634765625	36.9891471862793	-140.1071319580078	-790.4046020507812	39.17048263549805	-3.90509557723999	-883.3626708984375	919.809814453125	164.4272918701172	
